<svg width="204" height="204" viewBox="0 0 204 204" fill="none" xmlns="http://www.w3.org/2000/svg">
	<rect width="204" height="204" rx="33" fill="url(#paint0_linear_2_2)" />
	<path
		d="M58.144 108.88C60 106.448 62.528 104.4 65.728 102.736C68.928 101.072 72.544 100.24 76.576 100.24C81.184 100.24 85.376 101.392 89.152 103.696C92.992 105.936 96 109.104 98.176 113.2C100.352 117.296 101.44 122 101.44 127.312C101.44 132.624 100.352 137.392 98.176 141.616C96 145.776 92.992 149.04 89.152 151.408C85.376 153.712 81.184 154.864 76.576 154.864C72.544 154.864 68.96 154.064 65.824 152.464C62.688 150.8 60.128 148.752 58.144 146.32V179.152H47.2V101.104H58.144V108.88ZM90.304 127.312C90.304 123.664 89.536 120.528 88 117.904C86.528 115.216 84.544 113.2 82.048 111.856C79.616 110.448 76.992 109.744 74.176 109.744C71.424 109.744 68.8 110.448 66.304 111.856C63.872 113.264 61.888 115.312 60.352 118C58.88 120.688 58.144 123.856 58.144 127.504C58.144 131.152 58.88 134.352 60.352 137.104C61.888 139.792 63.872 141.84 66.304 143.248C68.8 144.656 71.424 145.36 74.176 145.36C76.992 145.36 79.616 144.656 82.048 143.248C84.544 141.776 86.528 139.664 88 136.912C89.536 134.16 90.304 130.96 90.304 127.312ZM108.615 127.312C108.615 122 109.703 117.296 111.879 113.2C114.119 109.104 117.127 105.936 120.903 103.696C124.743 101.392 128.999 100.24 133.671 100.24C137.127 100.24 140.519 101.008 143.847 102.544C147.239 104.016 149.927 106 151.911 108.496V82.96H162.951V154H151.911V146.032C150.119 148.592 147.623 150.704 144.423 152.368C141.287 154.032 137.671 154.864 133.575 154.864C128.967 154.864 124.743 153.712 120.903 151.408C117.127 149.04 114.119 145.776 111.879 141.616C109.703 137.392 108.615 132.624 108.615 127.312ZM151.911 127.504C151.911 123.856 151.143 120.688 149.607 118C148.135 115.312 146.183 113.264 143.751 111.856C141.319 110.448 138.695 109.744 135.879 109.744C133.063 109.744 130.439 110.448 128.007 111.856C125.575 113.2 123.591 115.216 122.055 117.904C120.583 120.528 119.847 123.664 119.847 127.312C119.847 130.96 120.583 134.16 122.055 136.912C123.591 139.664 125.575 141.776 128.007 143.248C130.503 144.656 133.127 145.36 135.879 145.36C138.695 145.36 141.319 144.656 143.751 143.248C146.183 141.84 148.135 139.792 149.607 137.104C151.143 134.352 151.911 131.152 151.911 127.504ZM181.741 154.672C179.757 154.672 178.093 154 176.749 152.656C175.405 151.312 174.733 149.648 174.733 147.664C174.733 145.68 175.405 144.016 176.749 142.672C178.093 141.328 179.757 140.656 181.741 140.656C183.661 140.656 185.293 141.328 186.637 142.672C187.981 144.016 188.653 145.68 188.653 147.664C188.653 149.648 187.981 151.312 186.637 152.656C185.293 154 183.661 154.672 181.741 154.672Z"
		fill="white"
	/>
	<defs>
		<linearGradient
			id="paint0_linear_2_2"
			x1="-42.5"
			y1="-59"
			x2="192.5"
			y2="204"
			gradientUnits="userSpaceOnUse"
		>
			<stop stop-color="#DE20E2" />
			<stop offset="1" stop-color="#470BA8" />
		</linearGradient>
	</defs>
</svg>
